<svg height="512" viewBox="0 0 60 60" width="512" xmlns="http://www.w3.org/2000/svg"><g id="Page-1" fill="none" fill-rule="evenodd"><g id="033---Ethernet" fill-rule="nonzero"><g id="Icons" transform="translate(1 1)"><rect id="Rectangle-path" fill="#37474f" height="58" rx="3" width="58"/><rect id="Rectangle-path" fill="#607d8b" height="58" rx="3" width="55"/><path id="Shape" d="m53 24v26c-.0032402 1.1032246-.8967754 1.9967598-2 2h-44c-1.10322458-.0032402-1.9967598-.8967754-2-2v-26c.0032402-1.1032246.89677542-1.9967598 2-2h4c.5516236-.0015928.9984072-.4483764 1-1v-5c.0015928-.5516236.4483764-.9984072 1-1h5c.5516236-.0015928.9984072-.4483764 1-1v-4c.0015928-.55162365.4483764-.99840721 1-1h18c.5516236.00159279.9984072.44837635 1 1v4c.0015928.5516236.4483764.9984072 1 1h5c.5516236.0015928.9984072.4483764 1 1v5c.0015928.5516236.4483764.9984072 1 1h4c1.1032246.0032402 1.9967598.8967754 2 2z" fill="#37474f"/><path id="Shape" d="m14 38v10h-4c-.55162365-.0015928-.99840721-.4483764-1-1v-8c.00159279-.5516236.44837635-.9984072 1-1z" fill="#ffdc00"/><path id="Rectangle-path" d="m14 38h5v10h-5z" fill="#fec108"/><path id="Rectangle-path" d="m19 38h5v10h-5z" fill="#ffdc00"/><path id="Rectangle-path" d="m24 38h5v10h-5z" fill="#fec108"/><path id="Rectangle-path" d="m29 38h5v10h-5z" fill="#ffdc00"/><path id="Rectangle-path" d="m34 38h5v10h-5z" fill="#fec108"/><path id="Rectangle-path" d="m39 38h5v10h-5z" fill="#ffdc00"/><path id="Shape" d="m49 39v8c-.0015928.5516236-.4483764.9984072-1 1h-4v-10h4c.5516236.0015928.9984072.4483764 1 1z" fill="#fec108"/><rect id="Rectangle-path" fill="#549414" height="5" rx="1" width="8" x="5" y="6"/><rect id="Rectangle-path" fill="#60a917" height="5" rx="1" width="5" x="5" y="6"/><rect id="Rectangle-path" fill="#f57c00" height="5" rx="1" width="8" x="45" y="6"/><rect id="Rectangle-path" fill="#ff9801" height="5" rx="1" width="5" x="45" y="6"/></g><g id="Layer_10" fill="#000"><path id="Shape" d="m56 60h-52c-2.20811096-.0024799-3.99752006-1.791889-4-4v-52c.00247994-2.20811096 1.79188904-3.99752006 4-4h52c2.208111.00247994 3.9975201 1.79188904 4 4v52c-.0024799 2.208111-1.791889 3.9975201-4 4zm-52-58c-1.10411252.00110246-1.99889754.89588748-2 2v52c.00110246 1.1041125.89588748 1.9988975 2 2h52c1.1041125-.0011025 1.9988975-.8958875 2-2v-52c-.0011025-1.10411252-.8958875-1.99889754-2-2z"/><path id="Shape" d="m15 50h-4c-1.10411252-.0011025-1.99889754-.8958875-2-2v-8c.00110246-1.1041125.89588748-1.9988975 2-2h4c.5522847 0 1 .4477153 1 1v10c0 .5522847-.4477153 1-1 1zm-4-10v8h3v-8z"/><path id="Shape" d="m20 50h-5c-.5522847 0-1-.4477153-1-1v-10c0-.5522847.4477153-1 1-1h5c.5522847 0 1 .4477153 1 1v10c0 .5522847-.4477153 1-1 1zm-4-2h3v-8h-3z"/><path id="Shape" d="m25 50h-5c-.5522847 0-1-.4477153-1-1v-10c0-.5522847.4477153-1 1-1h5c.5522847 0 1 .4477153 1 1v10c0 .5522847-.4477153 1-1 1zm-4-2h3v-8h-3z"/><path id="Shape" d="m30 50h-5c-.5522847 0-1-.4477153-1-1v-10c0-.5522847.4477153-1 1-1h5c.5522847 0 1 .4477153 1 1v10c0 .5522847-.4477153 1-1 1zm-4-2h3v-8h-3z"/><path id="Shape" d="m35 50h-5c-.5522847 0-1-.4477153-1-1v-10c0-.5522847.4477153-1 1-1h5c.5522847 0 1 .4477153 1 1v10c0 .5522847-.4477153 1-1 1zm-4-2h3v-8h-3z"/><path id="Shape" d="m40 50h-5c-.5522847 0-1-.4477153-1-1v-10c0-.5522847.4477153-1 1-1h5c.5522847 0 1 .4477153 1 1v10c0 .5522847-.4477153 1-1 1zm-4-2h3v-8h-3z"/><path id="Shape" d="m45 50h-5c-.5522847 0-1-.4477153-1-1v-10c0-.5522847.4477153-1 1-1h5c.5522847 0 1 .4477153 1 1v10c0 .5522847-.4477153 1-1 1zm-4-2h3v-8h-3z"/><path id="Shape" d="m49 50h-4c-.5522847 0-1-.4477153-1-1v-10c0-.5522847.4477153-1 1-1h4c1.1041125.0011025 1.9988975.8958875 2 2v8c-.0011025 1.1041125-.8958875 1.9988975-2 2zm-3-2h3.0015l-.0015-8h-3z"/><path id="Shape" d="m52 54h-44c-1.65610033-.0018187-2.99818129-1.3438997-3-3v-26c.00181871-1.6561003 1.34389967-2.9981813 3-3h4v-5c.0011025-1.1041125.8958875-1.9988975 2-2h5v-4c.0011025-1.10411252.8958875-1.99889754 2-2h18c1.1041125.00110246 1.9988975.89588748 2 2v4h5c1.1041125.0011025 1.9988975.8958875 2 2v5h4c1.6561003.0018187 2.9981813 1.3438997 3 3v26c-.0018187 1.6561003-1.3438997 2.9981813-3 3zm-44-30c-.55198782.0007162-.99928381.4480122-1 1v26c.00071619.5519878.44801218.9992838 1 1h44c.5519878-.0007162.9992838-.4480122 1-1v-26c-.0007162-.5519878-.4480122-.9992838-1-1h-4c-1.1041125-.0011025-1.9988975-.8958875-2-2v-5h-5c-1.1041125-.0011025-1.9988975-.8958875-2-2v-4h-18v4c-.0011025 1.1041125-.8958875 1.9988975-2 2h-5v5c-.0011025 1.1041125-.8958875 1.9988975-2 2z"/><path id="Shape" d="m13 13h-6c-1.10411252-.0011025-1.99889754-.8958875-2-2v-3c.00110246-1.10411252.89588748-1.99889754 2-2h6c1.1041125.00110246 1.9988975.89588748 2 2v3c-.0011025 1.1041125-.8958875 1.9988975-2 2zm-6-5v3h6.0015l-.0015-3z"/><path id="Shape" d="m53 13h-6c-1.1041125-.0011025-1.9988975-.8958875-2-2v-3c.0011025-1.10411252.8958875-1.99889754 2-2h6c1.1041125.00110246 1.9988975.89588748 2 2v3c-.0011025 1.1041125-.8958875 1.9988975-2 2zm-6-5v3h6.0015l-.0015-3z"/></g></g></g></svg>