<?xml version="1.0" encoding="utf-8"?>
<!-- Generator: Adobe Illustrator 16.0.0, SVG Export Plug-In . SVG Version: 6.00 Build 0)  -->
<!DOCTYPE svg PUBLIC "-//W3C//DTD SVG 1.1//EN" "http://www.w3.org/Graphics/SVG/1.1/DTD/svg11.dtd">
<svg version="1.1" id="Слой_1" xmlns="http://www.w3.org/2000/svg" xmlns:xlink="http://www.w3.org/1999/xlink" x="0px" y="0px"
	 width="100px" height="100.001px" viewBox="0 0 100 100.001" enable-background="new 0 0 100 100.001" xml:space="preserve">
<g>
	<path d="M88,2c5.514,0,10,4.486,10,10.001v76c0,5.514-4.486,10-10,10H12c-5.514,0-10-4.486-10-10v-76C2,6.486,6.486,2,12,2H88
		 M88,0H12C5.373,0,0,5.373,0,12.001v76c0,6.627,5.373,12,12,12h76c6.627,0,12-5.373,12-12v-76C100,5.373,94.627,0,88,0L88,0z"/>
</g>
<text transform="matrix(1 0 0 1 15.8203 85.0156)" font-family="'Verdana'" font-size="100">A</text>
</svg>
